<svg id="Capa_1" enable-background="new 0 0 493.106 493.106" height="512" viewBox="0 0 493.106 493.106" width="512" xmlns="http://www.w3.org/2000/svg"><g><path d="m113.338 236.944s-9.647-177.12-14.101-173.754c-7.142 5.398-13.613 11.695-19.236 18.774l-21.162 26.643-17.497 22.028-16.918 21.3c-3.349 4.216-2.758 10.327 1.336 13.823l73.496 62.778z" fill="#77d1b3"/><path d="m468.682 151.936-55.493-69.939c-5.586-7.04-12.009-13.3-19.097-18.682-2.778-2.109-8.628 173.629-8.628 173.629l8.465-8.474 73.417-62.71c4.094-3.498 4.684-9.608 1.336-13.824z" fill="#77d1b3"/><path d="m468.682 151.936-55.493-69.939c-5.586-7.04-12.009-13.3-19.097-18.682-.852-.647-1.992 15.433-3.165 38.039 1.09 1.249 2.162 2.516 3.196 3.819l55.493 69.939c.992 1.25 1.63 2.667 1.942 4.133l15.787-13.485c4.095-3.498 4.685-9.608 1.337-13.824z" fill="#67b59f"/><path d="m394.092 63.314c-8.874-6.747-18.787-12.105-29.414-15.821l-60.956-21.316h-114.26l-60.984 21.326c-10.556 3.692-20.411 9-29.241 15.684v165.333l.019.016v220.488c0 3.845 1.839 7.452 4.95 9.712 13.503 9.811 55.889 34.32 142.387 34.37 86.498-.05 128.883-24.559 142.387-34.37 3.111-2.26 4.95-5.866 4.95-9.712v-220.555z" fill="#cdf5a0"/><path d="m394.092 63.314c-8.874-6.747-18.787-12.105-29.414-15.821l-.6-.21-.149 168.393v246.441c0 4.297-1.839 8.326-4.95 10.852-1.232 1-2.706 2.138-4.43 3.377 17.566-6.516 28.648-13.411 34.43-17.611 3.111-2.26 4.95-5.866 4.95-9.712v-220.555z" fill="#b4e6a0"/><path d="m197.211.26 88.503-.258-10.957 76.653-33.383.387-34.728 1.967z" fill="#56988c"/><path d="m199.911 1.834 41.463 75.208-34.36 32.25c-5.964 5.597-15.742 2.824-17.879-5.07l-27.023-68.479 32.931-34.539c1.418-1.49 3.875-1.172 4.868.63z" fill="#77d1b3"/><path d="m282.979 1.575-41.606 75.467 34.36 32.25c5.964 5.597 15.742 2.824 17.879-5.07l29.41-71.294-35.33-32.134c-1.454-1.325-3.763-.942-4.713.781z" fill="#77d1b3"/><g><path d="m388.979 408.736c-13.503 9.81-55.889 34.32-142.387 34.37-86.498-.05-128.883-24.559-142.387-34.37-3.111-2.26-4.95-5.866-4.95-9.712v50c0 3.845 1.839 7.452 4.95 9.712 13.504 9.811 55.889 34.32 142.387 34.37 86.498-.05 128.883-24.559 142.387-34.37 3.111-2.26 4.95-5.866 4.95-9.712v-49.999c0 3.845-1.839 7.451-4.95 9.711z" fill="#77d1b3"/></g><path d="m393.929 399.025c0 3.845-1.839 7.451-4.95 9.711-4.676 3.397-12.817 8.556-25.05 13.852v39.53c0 4.297-1.839 8.326-4.95 10.852-1.232 1-2.706 2.138-4.43 3.377 10.967-4.068 19.406-8.284 25.607-11.899.011-.006.022-.013.033-.019.597-.348 1.171-.69 1.726-1.026.04-.025.081-.049.121-.074.549-.333 1.08-.661 1.588-.981.007-.005.014-.009.021-.013.511-.322 1.001-.637 1.472-.944.02-.013.041-.026.061-.039.446-.291.87-.574 1.28-.851.063-.043.127-.086.19-.128.389-.264.763-.522 1.12-.772.06-.042.118-.083.177-.124.36-.254.708-.502 1.035-.739 1.556-1.13 2.793-2.597 3.642-4.262s1.308-3.528 1.308-5.451v-50z" fill="#67b59f"/><path d="m338.619 173.296h-24.625c-3.343 0-6.053-2.71-6.053-6.053v-18.059c0-3.343 2.71-6.053 6.053-6.053h24.625c3.343 0 6.053 2.71 6.053 6.053v18.059c.001 3.342-2.71 6.053-6.053 6.053z" fill="#f3f5f3"/><path d="m241.373 204.967c-4.143 0-7.5-3.358-7.5-7.5v-72.023c0-4.142 3.357-7.5 7.5-7.5s7.5 3.358 7.5 7.5v72.023c0 4.142-3.357 7.5-7.5 7.5z" fill="#b4e6a0"/></g></svg>