<?xml version="1.0" encoding="utf-8"?>
<!-- Generator: Adobe Illustrator 24.0.2, SVG Export Plug-In . SVG Version: 6.00 Build 0)  -->
<svg version="1.1" id="Capa_1" xmlns="http://www.w3.org/2000/svg" xmlns:xlink="http://www.w3.org/1999/xlink" x="0px" y="0px"
	 viewBox="0 0 477.9 477.9" style="enable-background:new 0 0 477.9 477.9;" xml:space="preserve">
<style type="text/css">
	.st0{fill:#FFFFFF;}
</style>
<g>
	<g>
		<path class="st0" d="M470.4,224.8c-0.5-0.3-1-0.6-1.5-0.9L435,205.7l-188.1,99.6c-5,2.6-11,2.6-16,0L42.9,205.7L9,223.9
			c-8.2,4.4-11.4,14.6-7,22.8c0.3,0.5,0.6,1,0.9,1.5l236.1,125l236.1-125C480.2,240.5,478.1,230,470.4,224.8z"/>
	</g>
</g>
<g>
	<g>
		<path class="st0" d="M475.8,333.2c-1.6-2.9-4-5.3-6.9-6.9L435,308.1l-188.1,99.6c-5,2.6-11,2.6-16,0L42.9,308.1L9,326.3
			c-8.3,4.5-11.4,14.8-6.9,23.1c1.6,2.9,4,5.3,6.9,6.9l221.9,119.5c5.1,2.7,11.1,2.7,16.2,0l221.9-119.5
			C477.2,351.9,480.3,341.5,475.8,333.2z"/>
	</g>
</g>
<g>
	<g>
		<path class="st0" d="M470.4,122.4c-0.5-0.3-1-0.6-1.5-0.9L247,2c-5.1-2.7-11.1-2.7-16.2,0L9,121.5c-8.2,4.4-11.4,14.6-7,22.8
			c0.3,0.5,0.6,1,0.9,1.5l236.1,125l236.1-125C480.2,138.1,478.1,127.6,470.4,122.4z"/>
	</g>
</g>
</svg>
