<svg id="color" enable-background="new 0 0 24 24" height="512" viewBox="0 0 24 24" width="512" xmlns="http://www.w3.org/2000/svg"><g fill="#607d8b"><path d="m22.272 10.272c-.414 0-.751.336-.751.75 0 4.484-3.122 8.246-7.304 9.249v-.935c0-.666-.807-1.003-1.28-.53l-1.957 1.956c-.293.293-.293.768 0 1.061l1.957 1.957c.469.469 1.28.141 1.28-.53v-1.431c5.018-1.029 8.804-5.479 8.804-10.797.001-.414-.335-.75-.749-.75z"/><path d="m8.824 19.988c-3.796-1.33-6.346-4.934-6.346-8.966 0-1.143.206-2.251.593-3.294l.899.519c.575.334 1.272-.196 1.1-.844l-.76-2.834c-.108-.398-.51-.633-.919-.53l-2.836.759c-.644.173-.757 1.042-.18 1.374l1.379.796c-.508 1.276-.775 2.645-.775 4.055 0 4.669 2.954 8.841 7.35 10.382.396.137.82-.072.956-.46.136-.391-.07-.819-.461-.957z"/><path d="m23.056 4.917-1.614.432c-1.962-3.244-5.54-5.349-9.442-5.349-2.512 0-4.866.825-6.809 2.387-.323.259-.374.731-.115 1.053.261.324.732.374 1.055.115 1.674-1.344 3.703-2.055 5.869-2.055 3.223 0 6.185 1.664 7.921 4.257l-.874.234c-.644.173-.757 1.04-.181 1.374l2.541 1.468c.173.1.376.126.57.075.191-.052.355-.178.455-.35l1.468-2.541c.331-.576-.194-1.272-.844-1.1z"/></g><path d="m12 5c-3.309 0-6 2.691-6 6s2.691 6 6 6 6-2.691 6-6-2.691-6-6-6z" fill="#4caf50"/><path d="m11.875 10.25h.25c1.034 0 1.875.841 1.875 1.875 0 .813-.524 1.501-1.25 1.76v.365c0 .414-.336.75-.75.75s-.75-.336-.75-.75v-.25h-.5c-.414 0-.75-.336-.75-.75s.336-.75.75-.75h1.375c.207 0 .375-.168.375-.375s-.168-.375-.375-.375h-.25c-1.034 0-1.875-.841-1.875-1.875 0-.814.524-1.501 1.25-1.76v-.365c0-.414.336-.75.75-.75s.75.336.75.75v.25h.5c.414 0 .75.336.75.75s-.336.75-.75.75h-1.375c-.207 0-.375.168-.375.375s.168.375.375.375z" fill="#fff"/><path d="m12 19.744-1.02 1.019c-.293.293-.293.768 0 1.061l1.02 1.02z" fill="#546d79"/><path d="m3.585 4.015c-.064 0-.129.008-.194.024l-2.836.759c-.644.173-.757 1.042-.18 1.374l1.379.796c-.508 1.276-.775 2.645-.775 4.055 0 4.669 2.954 8.841 7.35 10.382.083.028.166.042.248.042.312 0 .6-.195.708-.502.137-.391-.069-.818-.46-.956-3.796-1.33-6.346-4.934-6.346-8.966 0-1.143.206-2.251.593-3.294l.898.518c.122.071.25.103.374.103.458 0 .861-.437.726-.947l-.76-2.834c-.091-.335-.389-.554-.725-.554z" fill="#546d79"/><path d="m12 0c-2.512 0-4.866.825-6.809 2.387-.323.259-.374.731-.115 1.053.149.185.366.281.585.281.165 0 .331-.054.469-.165 1.675-1.345 3.704-2.056 5.87-2.056z" fill="#546d79"/><path d="m12 9.5h-.125c-.207 0-.375.168-.375.375s.168.375.375.375h.125zm0-4.5c-3.309 0-6 2.691-6 6s2.691 6 6 6v-2c-.414 0-.75-.336-.75-.75v-.25h-.5c-.414 0-.75-.336-.75-.75s.336-.75.75-.75h1.25v-.75h-.125c-1.034 0-1.875-.841-1.875-1.875 0-.814.524-1.501 1.25-1.76v-.365c0-.414.336-.75.75-.75z" fill="#429846"/><path d="m12 12.5h-1.25c-.414 0-.75.336-.75.75s.336.75.75.75h.5v.25c0 .414.336.75.75.75zm0-5.5c-.414 0-.75.336-.75.75v.365c-.726.259-1.25.947-1.25 1.76 0 1.034.841 1.875 1.875 1.875h.125v-1.5h-.125c-.207 0-.375-.168-.375-.375s.168-.375.375-.375h.125z" fill="#dedede"/></svg>